<svg width="22" height="24" viewBox="0 0 22 24" fill="none" xmlns="http://www.w3.org/2000/svg">
<mask id="mask0_1_50954" style="mask-type:luminance" maskUnits="userSpaceOnUse" x="0" y="0" width="22" height="24">
<path d="M0 0H21.5117V24H0V0Z" fill="white"/>
</mask>
<g mask="url(#mask0_1_50954)">
<path fill-rule="evenodd" clip-rule="evenodd" d="M21.3916 5.44728C21.3916 4.24281 20.6265 3.26837 19.6809 3.26837C16.6589 3.26837 10.499 3.26837 8.41459 3.26837C7.96183 3.26837 7.52537 3.03834 7.20493 2.63019C6.75405 2.05511 6.09247 1.21246 5.64096 0.638179C5.32052 0.230032 4.88469 0 4.43193 0C3.73524 0 2.64285 0 1.71851 0C1.2645 0 0.829928 0.230032 0.509485 0.638179C0.188414 1.04712 0.0078125 1.59984 0.0078125 2.17891C0.0078125 6.73642 0.0078125 17.2308 0.0078125 21.7891C0.0078125 22.3674 0.188414 22.9209 0.509485 23.3291C0.829928 23.738 1.2645 23.9681 1.71851 23.9681C5.72499 23.9681 15.675 23.9681 19.6809 23.9681C20.1355 23.9681 20.5695 23.738 20.8905 23.3291C21.211 22.9209 21.3916 22.3674 21.3916 21.7891C21.3916 17.8123 21.3916 9.42412 21.3916 5.44728Z" fill="#FFD064"/>
</g>
</svg>
