<svg width="64" height="56" viewBox="0 0 64 56" fill="none" xmlns="http://www.w3.org/2000/svg">
<mask id="mask0_1_48710" style="mask-type:luminance" maskUnits="userSpaceOnUse" x="0" y="0" width="64" height="56">
<path d="M0.9375 0.54541L63.9375 0.545013L63.9379 55.545L0.937866 55.5454L0.9375 0.54541Z" fill="white"/>
</mask>
<g mask="url(#mask0_1_48710)">
<path d="M36.5683 10.3251L32.7424 3.67297C31.6251 1.73142 29.7236 0.559389 27.6827 0.559402L5.87383 0.55954C3.19141 0.559557 1.01759 3.03472 1.01761 6.09028L1.01791 50.0045C1.01793 53.0582 3.19177 55.5352 5.87419 55.5352L59.0731 55.5349C61.7555 55.5349 63.931 53.0597 63.931 50.0041L63.9307 18.9711C63.9307 15.9156 61.7569 13.4386 59.0728 13.4386L41.6281 13.4387C39.5888 13.4387 37.6856 12.2686 36.5683 10.3251Z" fill="#68A0FD"/>
</g>
</svg>
