<svg width="16" height="17" viewBox="0 0 16 17" fill="none" xmlns="http://www.w3.org/2000/svg">
<path d="M14.6673 7.16634V10.4997C14.6673 13.833 13.334 15.1663 10.0007 15.1663H6.00065C2.66732 15.1663 1.33398 13.833 1.33398 10.4997V6.49967C1.33398 3.16634 2.66732 1.83301 6.00065 1.83301H9.33398" stroke="#6E6D6D" stroke-width="1.5" stroke-linecap="round" stroke-linejoin="round"/>
<path d="M14.6673 7.16634H12.0007C10.0007 7.16634 9.33398 6.49967 9.33398 4.49967V1.83301L14.6673 7.16634Z" stroke="#6E6D6D" stroke-width="1.5" stroke-linecap="round" stroke-linejoin="round"/>
<path d="M6.13334 12.7667C7.31155 12.7667 8.26666 11.8115 8.26666 10.6333C8.26666 9.45512 7.31155 8.5 6.13334 8.5C4.95513 8.5 4 9.45512 4 10.6333C4 11.8115 4.95513 12.7667 6.13334 12.7667Z" stroke="#6E6D6D" stroke-width="1.5" stroke-linecap="round" stroke-linejoin="round"/>
<path d="M8.66667 13.1667L8 12.5" stroke="#6E6D6D" stroke-width="1.5" stroke-linecap="round" stroke-linejoin="round"/>
</svg>
