<svg width="29" height="36" viewBox="0 0 29 36" fill="none" xmlns="http://www.w3.org/2000/svg">
<mask id="mask0_115_13198" style="mask-type:luminance" maskUnits="userSpaceOnUse" x="0" y="0" width="29" height="36">
<path d="M0.956055 0.609375H28.7502V35.352H0.956055V0.609375Z" fill="white"/>
</mask>
<g mask="url(#mask0_115_13198)">
<path d="M4.43032 0.609375H18.3274L28.7502 11.0322V31.8778C28.7502 32.1058 28.7285 32.3319 28.6841 32.5554C28.6389 32.7789 28.5737 32.9969 28.486 33.2068C28.3991 33.4177 28.2915 33.6185 28.1648 33.8076C28.0381 33.9976 27.8943 34.1731 27.7332 34.3342C27.5713 34.4961 27.3958 34.64 27.2067 34.7666C27.0167 34.8933 26.8167 35.0001 26.6059 35.0878C26.3951 35.1747 26.1779 35.2407 25.9545 35.2851C25.7301 35.3294 25.5039 35.352 25.2759 35.352H4.43032C4.20232 35.352 3.97704 35.3294 3.75266 35.2851C3.52918 35.2407 3.31204 35.1747 3.10123 35.0878C2.89042 35.0001 2.69047 34.8933 2.50047 34.7666C2.31047 34.64 2.13495 34.4961 1.97391 34.3342C1.81286 34.1731 1.669 33.9976 1.54234 33.8076C1.41477 33.6185 1.308 33.4177 1.22115 33.2068C1.13339 32.9969 1.06734 32.7789 1.02301 32.5554C0.978673 32.3319 0.956055 32.1058 0.956055 31.8778V4.08364C0.956055 3.85564 0.978673 3.62945 1.02301 3.40598C1.06734 3.1825 1.13339 2.96446 1.22115 2.75365C1.308 2.54374 1.41477 2.34289 1.54234 2.15379C1.669 1.9638 1.81286 1.78827 1.97391 1.62723C2.13495 1.46527 2.31047 1.32142 2.50047 1.19475C2.69047 1.06809 2.89042 0.961325 3.10123 0.873564C3.31204 0.786707 3.52918 0.72066 3.75266 0.676327C3.97704 0.631994 4.20232 0.609375 4.43032 0.609375Z" fill="#E95964"/>
</g>
<mask id="mask1_115_13198" style="mask-type:luminance" maskUnits="userSpaceOnUse" x="18" y="0" width="11" height="12">
<path d="M18.2168 0.609375H28.7518V11.148H18.2168V0.609375Z" fill="white"/>
</mask>
<g mask="url(#mask1_115_13198)">
<path d="M18.3281 0.609375V7.5579C18.3281 7.7859 18.3507 8.01209 18.3951 8.23557C18.4394 8.45904 18.5055 8.67709 18.5932 8.88699C18.6801 9.0978 18.7868 9.29866 18.9144 9.48775C19.0411 9.67775 19.1849 9.85327 19.346 10.0143C19.507 10.1763 19.6825 10.3201 19.8725 10.4468C20.0625 10.5735 20.2625 10.6802 20.4733 10.768C20.6841 10.8548 20.9013 10.9209 21.1247 10.9652C21.3491 11.0095 21.5744 11.0322 21.8024 11.0322H28.7509L18.3281 0.609375Z" fill="#A74249"/>
</g>
<path d="M7.57342 25.373V18.9665H10.101C10.5869 18.9665 11.0009 19.0593 11.3429 19.2449C11.6849 19.4284 11.9456 19.6839 12.125 20.0113C12.3064 20.3366 12.3971 20.712 12.3971 21.1374C12.3971 21.5629 12.3054 21.9383 12.1219 22.2636C11.9383 22.5889 11.6724 22.8423 11.3242 23.0238C10.978 23.2052 10.5588 23.2959 10.0666 23.2959H8.45558V22.2104H9.84764C10.1083 22.2104 10.3231 22.1656 10.4921 22.0759C10.6631 21.9841 10.7903 21.858 10.8737 21.6974C10.9592 21.5347 11.002 21.3481 11.002 21.1374C11.002 20.9247 10.9592 20.7391 10.8737 20.5806C10.7903 20.42 10.6631 20.2959 10.4921 20.2084C10.321 20.1187 10.1042 20.0738 9.84138 20.0738H8.92794V25.373H7.57342ZM14.9451 25.4513C14.5801 25.4513 14.2496 25.3574 13.9534 25.1697C13.6594 24.9799 13.4258 24.7015 13.2527 24.3345C13.0817 23.9653 12.9962 23.5128 12.9962 22.9768C12.9962 22.4263 13.0848 21.9685 13.2621 21.6035C13.4394 21.2365 13.675 20.9623 13.9691 20.7808C14.2652 20.5973 14.5895 20.5055 14.9419 20.5055C15.211 20.5055 15.4352 20.5514 15.6145 20.6432C15.7959 20.7329 15.9419 20.8455 16.0525 20.981C16.1651 21.1145 16.2506 21.2459 16.309 21.3752H16.3496V18.9665H17.6791V25.373H16.3653V24.6035H16.309C16.2464 24.737 16.1578 24.8694 16.0431 25.0008C15.9305 25.1301 15.7834 25.2375 15.602 25.323C15.4226 25.4085 15.2037 25.4513 14.9451 25.4513ZM15.3674 24.3908C15.5822 24.3908 15.7636 24.3324 15.9117 24.2156C16.0618 24.0967 16.1765 23.9309 16.2558 23.7182C16.3371 23.5055 16.3778 23.2563 16.3778 22.9706C16.3778 22.6849 16.3382 22.4367 16.2589 22.2261C16.1797 22.0154 16.065 21.8528 15.9148 21.7381C15.7647 21.6234 15.5822 21.566 15.3674 21.566C15.1484 21.566 14.9638 21.6254 14.8137 21.7443C14.6635 21.8632 14.5499 22.0279 14.4727 22.2386C14.3955 22.4492 14.357 22.6932 14.357 22.9706C14.357 23.25 14.3955 23.4972 14.4727 23.712C14.552 23.9247 14.6656 24.0915 14.8137 24.2125C14.9638 24.3313 15.1484 24.3908 15.3674 24.3908ZM21.3587 20.5681V21.5691H18.3932V20.5681H21.3587ZM19.072 25.373V20.2209C19.072 19.8726 19.1398 19.5838 19.2753 19.3544C19.413 19.125 19.6006 18.9529 19.8384 18.8382C20.0761 18.7235 20.3462 18.6661 20.6486 18.6661C20.853 18.6661 21.0396 18.6818 21.2085 18.7131C21.3796 18.7444 21.5068 18.7725 21.5902 18.7975L21.3524 19.7986C21.3003 19.7819 21.2357 19.7662 21.1585 19.7516C21.0834 19.737 21.0063 19.7297 20.927 19.7297C20.731 19.7297 20.5944 19.7756 20.5172 19.8674C20.4401 19.9571 20.4015 20.0832 20.4015 20.2459V25.373H19.072Z" fill="white"/>
</svg>
