<svg width="45" height="56" viewBox="0 0 45 56" fill="none" xmlns="http://www.w3.org/2000/svg">
<mask id="mask0_1_50579" style="mask-type:luminance" maskUnits="userSpaceOnUse" x="0" y="0" width="45" height="57">
<path d="M0.505859 0.00292969H44.5059V56.0029H0.505859V0.00292969Z" fill="white"/>
</mask>
<g mask="url(#mask0_1_50579)">
<path d="M6.00586 0.00292969H28.0059L44.5059 16.8029V50.4029C44.5059 50.7704 44.4715 51.135 44.4013 51.4952C44.3297 51.8554 44.2266 52.2069 44.0876 52.5452C43.9501 52.885 43.7797 53.2088 43.5792 53.5136C43.3786 53.8198 43.1509 54.1027 42.896 54.3623C42.6396 54.6233 42.3617 54.8552 42.0624 55.0594C41.7616 55.2636 41.4451 55.4356 41.1113 55.5771C40.7776 55.7171 40.4339 55.8236 40.0801 55.895C39.7249 55.9665 39.3668 56.0029 39.0059 56.0029H6.00586C5.64492 56.0029 5.28828 55.9665 4.93307 55.895C4.5793 55.8236 4.23555 55.7171 3.90182 55.5771C3.5681 55.4356 3.25156 55.2636 2.95078 55.0594C2.65 54.8552 2.37214 54.6233 2.11719 54.3623C1.86224 54.1027 1.63451 53.8198 1.43398 53.5136C1.23203 53.2088 1.06302 52.885 0.925521 52.5452C0.786589 52.2069 0.682031 51.8554 0.611849 51.4952C0.541666 51.135 0.505859 50.7704 0.505859 50.4029V5.60293C0.505859 5.23543 0.541666 4.87085 0.611849 4.51064C0.682031 4.15043 0.786589 3.79897 0.925521 3.45918C1.06302 3.12085 1.23203 2.7971 1.43398 2.4923C1.63451 2.18605 1.86224 1.90314 2.11719 1.64355C2.37214 1.38251 2.65 1.15064 2.95078 0.946471C3.25156 0.742305 3.5681 0.570221 3.90182 0.428763C4.23555 0.288763 4.5793 0.182305 4.93307 0.110846C5.28828 0.0393881 5.64492 0.00292969 6.00586 0.00292969Z" fill="#498CFC"/>
</g>
<mask id="mask1_1_50579" style="mask-type:luminance" maskUnits="userSpaceOnUse" x="27" y="0" width="18" height="17">
<path d="M27.8242 0.00292969H44.5018V16.9896H27.8242V0.00292969Z" fill="white"/>
</mask>
<g mask="url(#mask1_1_50579)">
<path d="M28.0049 0.00292969V11.2029C28.0049 11.5704 28.0407 11.935 28.1109 12.2952C28.1811 12.6554 28.2856 13.0069 28.4245 13.3452C28.562 13.685 28.7311 14.0088 28.933 14.3136C29.1335 14.6198 29.3613 14.9027 29.6162 15.1623C29.8712 15.4233 30.149 15.6552 30.4498 15.8594C30.7506 16.0636 31.0671 16.2356 31.4008 16.3771C31.7346 16.5171 32.0783 16.6236 32.4321 16.695C32.7873 16.7665 33.1439 16.8029 33.5049 16.8029H44.5049L28.0049 0.00292969Z" fill="#365D9E"/>
</g>
<path d="M8.68554 33.1356C8.34128 33.1356 8.0457 33.0139 7.79881 32.7705C7.55539 32.5236 7.43368 32.228 7.43368 31.8838C7.43368 31.543 7.55539 31.2509 7.79881 31.0075C8.0457 30.764 8.34128 30.6423 8.68554 30.6423C9.01937 30.6423 9.31148 30.764 9.56185 31.0075C9.81222 31.2509 9.93741 31.543 9.93741 31.8838C9.93741 32.1133 9.87829 32.3236 9.76006 32.5149C9.64531 32.7027 9.49404 32.8539 9.30626 32.9687C9.11848 33.08 8.91157 33.1356 8.68554 33.1356ZM15.5904 33H11.8035V22.3174H15.6216C16.6962 22.3174 17.6212 22.5313 18.3966 22.959C19.1721 23.3833 19.7684 23.9935 20.1857 24.7899C20.6065 25.5862 20.8169 26.539 20.8169 27.6483C20.8169 28.7611 20.6065 29.7173 20.1857 30.5171C19.7684 31.3169 19.1686 31.9307 18.3862 32.3584C17.6072 32.7861 16.6753 33 15.5904 33ZM14.062 31.0648H15.4965C16.1641 31.0648 16.7257 30.9466 17.1813 30.7101C17.6403 30.4702 17.9845 30.0999 18.214 29.5991C18.447 29.0949 18.5635 28.4446 18.5635 27.6483C18.5635 26.8589 18.447 26.2139 18.214 25.7131C17.9845 25.2124 17.642 24.8438 17.1865 24.6073C16.7309 24.3708 16.1693 24.2526 15.5017 24.2526H14.062V31.0648ZM26.0682 33.1565C25.2579 33.1565 24.5573 32.9844 23.9661 32.6401C23.3784 32.2923 22.9246 31.809 22.6047 31.19C22.2848 30.5676 22.1248 29.846 22.1248 29.0253C22.1248 28.1977 22.2848 27.4744 22.6047 26.8554C22.9246 26.233 23.3784 25.7496 23.9661 25.4054C24.5573 25.0576 25.2579 24.8838 26.0682 24.8838C26.8784 24.8838 27.5774 25.0576 28.1651 25.4054C28.7562 25.7496 29.2117 26.233 29.5317 26.8554C29.8516 27.4744 30.0116 28.1977 30.0116 29.0253C30.0116 29.846 29.8516 30.5676 29.5317 31.19C29.2117 31.809 28.7562 32.2923 28.1651 32.6401C27.5774 32.9844 26.8784 33.1565 26.0682 33.1565ZM26.0786 31.4352C26.4472 31.4352 26.755 31.3308 27.0019 31.1222C27.2488 30.9101 27.4348 30.6215 27.56 30.2563C27.6886 29.8912 27.753 29.4757 27.753 29.0097C27.753 28.5437 27.6886 28.1282 27.56 27.763C27.4348 27.3979 27.2488 27.1093 27.0019 26.8972C26.755 26.685 26.4472 26.579 26.0786 26.579C25.7065 26.579 25.3936 26.685 25.1397 26.8972C24.8893 27.1093 24.6998 27.3979 24.5712 27.763C24.446 28.1282 24.3834 28.5437 24.3834 29.0097C24.3834 29.4757 24.446 29.8912 24.5712 30.2563C24.6998 30.6215 24.8893 30.9101 25.1397 31.1222C25.3936 31.3308 25.7065 31.4352 26.0786 31.4352ZM35.0764 33.1565C34.2557 33.1565 33.5498 32.9826 32.9586 32.6349C32.371 32.2837 31.9189 31.7968 31.6025 31.1744C31.2895 30.5519 31.133 29.8356 31.133 29.0253C31.133 28.2047 31.2912 27.4848 31.6077 26.8659C31.9276 26.2434 32.3814 25.7583 32.9691 25.4106C33.5568 25.0594 34.2557 24.8838 35.0659 24.8838C35.7649 24.8838 36.3769 25.0107 36.902 25.2645C37.4271 25.5184 37.8426 25.8748 38.1487 26.3338C38.4547 26.7928 38.6233 27.3318 38.6546 27.9508H36.5577C36.4986 27.5509 36.3422 27.2293 36.0883 26.9858C35.8379 26.7389 35.5093 26.6155 35.1025 26.6155C34.7582 26.6155 34.4574 26.7094 34.2001 26.8972C33.9462 27.0815 33.748 27.351 33.6054 27.7057C33.4629 28.0604 33.3916 28.4898 33.3916 28.994C33.3916 29.5052 33.4611 29.9399 33.6002 30.2981C33.7428 30.6562 33.9427 30.9292 34.2001 31.117C34.4574 31.3048 34.7582 31.3987 35.1025 31.3987C35.3563 31.3987 35.5841 31.3465 35.7858 31.2422C35.9909 31.1379 36.1596 30.9866 36.2917 30.7884C36.4273 30.5867 36.516 30.345 36.5577 30.0633H38.6546C38.6198 30.6754 38.4529 31.2144 38.1539 31.6803C37.8583 32.1428 37.4497 32.5045 36.9281 32.7653C36.4065 33.0261 35.7892 33.1565 35.0764 33.1565Z" fill="white"/>
</svg>
