<svg width="29" height="36" viewBox="0 0 29 36" fill="none" xmlns="http://www.w3.org/2000/svg">
<mask id="mask0_1_49696" style="mask-type:luminance" maskUnits="userSpaceOnUse" x="0" y="0" width="29" height="36">
<path d="M0.334473 0.473633H28.1292V35.217H0.334473V0.473633Z" fill="white"/>
</mask>
<g mask="url(#mask0_1_49696)">
<path d="M3.80881 0.473633H17.7062L28.1292 10.8967V31.7427C28.1292 31.9707 28.1075 32.1969 28.0631 32.4204C28.0179 32.6439 27.9528 32.8619 27.865 33.0718C27.7781 33.2826 27.6705 33.4835 27.5438 33.6726C27.4171 33.8626 27.2733 34.0381 27.1122 34.1992C26.9503 34.3611 26.7747 34.505 26.5856 34.6316C26.3956 34.7583 26.1957 34.8651 25.9849 34.9528C25.7741 35.0397 25.5569 35.1058 25.3334 35.1501C25.1091 35.1944 24.8829 35.217 24.6549 35.217H3.80881C3.58081 35.217 3.35552 35.1944 3.13114 35.1501C2.90766 35.1058 2.69051 35.0397 2.4797 34.9528C2.26888 34.8651 2.06893 34.7583 1.87893 34.6316C1.68892 34.505 1.5134 34.3611 1.35235 34.1992C1.1913 34.0381 1.04744 33.8626 0.920768 33.6726C0.793194 33.4835 0.686431 33.2826 0.599572 33.0718C0.511809 32.8619 0.44576 32.6439 0.401426 32.4204C0.357092 32.1969 0.334473 31.9707 0.334473 31.7427V3.94797C0.334473 3.71997 0.357092 3.49378 0.401426 3.2703C0.44576 3.04682 0.511809 2.82877 0.599572 2.61795C0.686431 2.40804 0.793194 2.20718 0.920768 2.01809C1.04744 1.82808 1.1913 1.65256 1.35235 1.49151C1.5134 1.32955 1.68892 1.18569 1.87893 1.05902C2.06893 0.932354 2.26888 0.825591 2.4797 0.737827C2.69051 0.650969 2.90766 0.58492 3.13114 0.540586C3.35552 0.496252 3.58081 0.473633 3.80881 0.473633Z" fill="#47A778"/>
</g>
<mask id="mask1_1_49696" style="mask-type:luminance" maskUnits="userSpaceOnUse" x="17" y="0" width="12" height="12">
<path d="M17.5942 0.473633H28.1295V11.0125H17.5942V0.473633Z" fill="white"/>
</mask>
<g mask="url(#mask1_1_49696)">
<path d="M17.7046 0.473633V7.42231C17.7046 7.65032 17.7272 7.87651 17.7715 8.09999C17.8159 8.32347 17.8819 8.54152 17.9697 8.75143C18.0565 8.96224 18.1633 9.1631 18.2909 9.3522C18.4176 9.5422 18.5614 9.71773 18.7225 9.87878C18.8835 10.0407 19.059 10.1846 19.249 10.3113C19.439 10.4379 19.639 10.5447 19.8498 10.6325C20.0606 10.7193 20.2778 10.7854 20.5013 10.8297C20.7256 10.874 20.9509 10.8967 21.1789 10.8967H28.1276L17.7046 0.473633Z" fill="#3B7C5C"/>
</g>
<path d="M6.81542 25.799C6.60184 25.799 6.41845 25.7235 6.26528 25.5725C6.11426 25.4193 6.03875 25.2359 6.03875 25.0223C6.03875 24.8109 6.11426 24.6297 6.26528 24.4786C6.41845 24.3276 6.60184 24.2521 6.81542 24.2521C7.02254 24.2521 7.20376 24.3276 7.3591 24.4786C7.51443 24.6297 7.5921 24.8109 7.5921 25.0223C7.5921 25.1647 7.55543 25.2952 7.48207 25.4139C7.41088 25.5304 7.31703 25.6242 7.20053 25.6954C7.08402 25.7645 6.95566 25.799 6.81542 25.799ZM8.18594 20.2425V19.0872H13.6292V20.2425H11.6001V25.7148H10.215V20.2425H8.18594ZM15.3937 20.7441L16.3063 22.4819L17.2415 20.7441H18.6557L17.2156 23.2295L18.6946 25.7148H17.2868L16.3063 23.9964L15.3419 25.7148H13.918L15.3937 23.2295L13.9698 20.7441H15.3937ZM22.1184 20.7441V21.7797H19.125V20.7441H22.1184ZM19.8046 19.5532H21.1832V24.1874C21.1832 24.3147 21.2026 24.4139 21.2414 24.4851C21.2802 24.5541 21.3342 24.6027 21.4032 24.6307C21.4744 24.6588 21.5564 24.6728 21.6492 24.6728C21.7139 24.6728 21.7786 24.6674 21.8433 24.6566C21.9081 24.6437 21.9577 24.634 21.9922 24.6275L22.209 25.6534C22.14 25.6749 22.0429 25.6997 21.9178 25.7278C21.7926 25.758 21.6405 25.7763 21.4615 25.7828C21.1292 25.7957 20.838 25.7515 20.5877 25.6501C20.3396 25.5487 20.1465 25.3912 20.0084 25.1776C19.8704 24.9641 19.8024 24.6944 19.8046 24.3686V19.5532Z" fill="white"/>
</svg>
