<svg width="45" height="58" viewBox="0 0 45 58" fill="none" xmlns="http://www.w3.org/2000/svg">
<mask id="mask0_1_50623" style="mask-type:luminance" maskUnits="userSpaceOnUse" x="0" y="0" width="45" height="56">
<path d="M0.241211 0H44.2355V56H0.241211V0Z" fill="white"/>
</mask>
<g mask="url(#mask0_1_50623)">
<path d="M5.74049 0H27.7376L44.2355 16.8V50.4C44.2355 50.7675 44.2011 51.1321 44.1309 51.4923C44.0593 51.8525 43.9562 52.204 43.8173 52.5423C43.6798 52.8821 43.5094 53.2058 43.3089 53.5106C43.1084 53.8169 42.8807 54.0998 42.6258 54.3594C42.3694 54.6204 42.0916 54.8523 41.7923 55.0565C41.4916 55.2606 41.1751 55.4327 40.8414 55.5742C40.5077 55.7142 40.164 55.8206 39.8103 55.8921C39.4551 55.9635 39.0971 56 38.7362 56H5.74049C5.3796 56 5.02301 55.9635 4.66785 55.8921C4.31412 55.8206 3.97041 55.7142 3.63673 55.5742C3.30305 55.4327 2.98656 55.2606 2.68581 55.0565C2.38507 54.8523 2.10724 54.6204 1.85233 54.3594C1.59741 54.0998 1.36971 53.8169 1.16922 53.5106C0.967288 53.2058 0.7983 52.8821 0.660818 52.5423C0.521904 52.204 0.41736 51.8525 0.347187 51.4923C0.277013 51.1321 0.241211 50.7675 0.241211 50.4V5.6C0.241211 5.2325 0.277013 4.86792 0.347187 4.50771C0.41736 4.1475 0.521904 3.79604 0.660818 3.45625C0.7983 3.11792 0.967288 2.79417 1.16922 2.48938C1.36971 2.18312 1.59741 1.90021 1.85233 1.64062C2.10724 1.37958 2.38507 1.14771 2.68581 0.943542C2.98656 0.739375 3.30305 0.567292 3.63673 0.425833C3.97041 0.285833 4.31412 0.179375 4.66785 0.107917C5.02301 0.0364584 5.3796 0 5.74049 0Z" fill="#E95964"/>
</g>
<mask id="mask1_1_50623" style="mask-type:luminance" maskUnits="userSpaceOnUse" x="27" y="0" width="18" height="17">
<path d="M27.5654 0H44.2409V16.9867H27.5654V0Z" fill="white"/>
</mask>
<g mask="url(#mask1_1_50623)">
<path d="M27.7451 0V11.2C27.7451 11.5675 27.7809 11.9321 27.8511 12.2923C27.9213 12.6525 28.0258 13.004 28.1647 13.3423C28.3022 13.6821 28.4712 14.0058 28.6731 14.3106C28.8736 14.6169 29.1013 14.8998 29.3562 15.1594C29.6112 15.4204 29.889 15.6523 30.1897 15.8565C30.4905 16.0606 30.807 16.2327 31.1406 16.3742C31.4743 16.5142 31.818 16.6206 32.1718 16.6921C32.5269 16.7635 32.8835 16.8 33.2444 16.8H44.243L27.7451 0Z" fill="#A74249"/>
</g>
<path d="M10.1911 34V23.3969H14.3743C15.1785 23.3969 15.8637 23.5505 16.4297 23.8577C16.9958 24.1614 17.4272 24.5842 17.724 25.1261C18.0243 25.6646 18.1745 26.2858 18.1745 26.99C18.1745 27.6941 18.0226 28.3153 17.7189 28.8538C17.4151 29.3922 16.9751 29.8116 16.3987 30.1119C15.8257 30.4121 15.1319 30.5623 14.3174 30.5623H11.6511V28.7658H13.955C14.3864 28.7658 14.7419 28.6916 15.0215 28.5431C15.3045 28.3913 15.5151 28.1825 15.6531 27.9167C15.7946 27.6475 15.8654 27.3386 15.8654 26.99C15.8654 26.6379 15.7946 26.3307 15.6531 26.0684C15.5151 25.8026 15.3045 25.5973 15.0215 25.4523C14.7385 25.3039 14.3795 25.2297 13.9446 25.2297H12.4329V34H10.1911ZM22.3914 34.1294C21.7873 34.1294 21.2403 33.9741 20.7502 33.6635C20.2635 33.3494 19.8769 32.8886 19.5904 32.2811C19.3074 31.6702 19.1659 30.9212 19.1659 30.0342C19.1659 29.123 19.3126 28.3654 19.606 27.7614C19.8994 27.1539 20.2894 26.7 20.776 26.3997C21.2662 26.096 21.8029 25.9441 22.3862 25.9441C22.8314 25.9441 23.2025 26.0201 23.4993 26.1719C23.7996 26.3204 24.0412 26.5067 24.2241 26.7311C24.4105 26.952 24.552 27.1694 24.6487 27.3834H24.716V23.3969H26.9163V34H24.7418V32.7264H24.6487C24.5451 32.9473 24.3984 33.1665 24.2086 33.3839C24.0222 33.5979 23.7789 33.7757 23.4786 33.9172C23.1818 34.0587 22.8193 34.1294 22.3914 34.1294ZM23.0903 32.3743C23.4458 32.3743 23.7461 32.2777 23.9911 32.0844C24.2397 31.8877 24.4295 31.6133 24.5606 31.2612C24.6953 30.9092 24.7626 30.4967 24.7626 30.0238C24.7626 29.551 24.697 29.1403 24.5658 28.7917C24.4347 28.443 24.2448 28.1738 23.9963 27.984C23.7478 27.7942 23.4458 27.6992 23.0903 27.6992C22.7279 27.6992 22.4224 27.7976 22.1739 27.9943C21.9254 28.1911 21.7373 28.4638 21.6096 28.8124C21.4819 29.161 21.418 29.5648 21.418 30.0238C21.418 30.4863 21.4819 30.8954 21.6096 31.2509C21.7407 31.6029 21.9289 31.879 22.1739 32.0792C22.4224 32.276 22.7279 32.3743 23.0903 32.3743ZM33.0061 26.0477V27.7044H28.098V26.0477H33.0061ZM29.2215 34V25.473C29.2215 24.8966 29.3337 24.4186 29.558 24.0389C29.7858 23.6592 30.0965 23.3745 30.4899 23.1847C30.8834 22.9948 31.3304 22.8999 31.8308 22.8999C32.1691 22.8999 32.478 22.9258 32.7576 22.9776C33.0406 23.0293 33.2511 23.0759 33.3892 23.1173L32.9957 24.7741C32.9094 24.7465 32.8025 24.7206 32.6747 24.6964C32.5505 24.6723 32.4228 24.6602 32.2916 24.6602C31.9672 24.6602 31.7411 24.7361 31.6134 24.888C31.4857 25.0364 31.4218 25.2452 31.4218 25.5144V34H29.2215Z" fill="white"/>
</svg>
