<svg width="29" height="36" viewBox="0 0 29 36" fill="none" xmlns="http://www.w3.org/2000/svg">
<mask id="mask0_115_13105" style="mask-type:luminance" maskUnits="userSpaceOnUse" x="0" y="0" width="29" height="36">
<path d="M0.962891 0.611328H28.757V35.354H0.962891V0.611328Z" fill="white"/>
</mask>
<g mask="url(#mask0_115_13105)">
<path d="M4.43716 0.611328H18.3342L28.757 11.0341V31.8797C28.757 32.1077 28.7353 32.3339 28.691 32.5574C28.6457 32.7808 28.5806 32.9989 28.4928 33.2088C28.406 33.4196 28.2983 33.6205 28.1716 33.8096C28.045 33.9996 27.9011 34.1751 27.7401 34.3361C27.5781 34.4981 27.4026 34.6419 27.2135 34.7686C27.0235 34.8953 26.8235 35.002 26.6127 35.0898C26.4019 35.1766 26.1848 35.2427 25.9613 35.287C25.7369 35.3314 25.5107 35.354 25.2827 35.354H4.43716C4.20916 35.354 3.98387 35.3314 3.75949 35.287C3.53602 35.2427 3.31888 35.1766 3.10807 35.0898C2.89726 35.002 2.69731 34.8953 2.50731 34.7686C2.31731 34.6419 2.14179 34.4981 1.98074 34.3361C1.8197 34.1751 1.67584 33.9996 1.54917 33.8096C1.4216 33.6205 1.31484 33.4196 1.22798 33.2088C1.14022 32.9989 1.07418 32.7808 1.02984 32.5574C0.985509 32.3339 0.962891 32.1077 0.962891 31.8797V4.08559C0.962891 3.85759 0.985509 3.6314 1.02984 3.40793C1.07418 3.18446 1.14022 2.96641 1.22798 2.7556C1.31484 2.5457 1.4216 2.34484 1.54917 2.15575C1.67584 1.96575 1.8197 1.79023 1.98074 1.62918C2.14179 1.46723 2.31731 1.32337 2.50731 1.19671C2.69731 1.07004 2.89726 0.963278 3.10807 0.875517C3.31888 0.78866 3.53602 0.722613 3.75949 0.67828C3.98387 0.633947 4.20916 0.611328 4.43716 0.611328Z" fill="#498CFC"/>
</g>
<mask id="mask1_115_13105" style="mask-type:luminance" maskUnits="userSpaceOnUse" x="18" y="0" width="11" height="12">
<path d="M18.2197 0.611328H28.7547V11.1499H18.2197V0.611328Z" fill="white"/>
</mask>
<g mask="url(#mask1_115_13105)">
<path d="M18.332 0.611328V7.55986C18.332 7.78786 18.3546 8.01405 18.399 8.23752C18.4433 8.461 18.5094 8.67904 18.5971 8.88895C18.684 9.09975 18.7907 9.30061 18.9183 9.4897C19.045 9.6797 19.1888 9.85522 19.3499 10.0163C19.5109 10.1782 19.6865 10.3221 19.8765 10.4487C20.0664 10.5754 20.2664 10.6822 20.4772 10.7699C20.688 10.8568 20.9052 10.9228 21.1286 10.9672C21.353 11.0115 21.5783 11.0341 21.8063 11.0341H28.7548L18.332 0.611328Z" fill="#365D9E"/>
</g>
<path d="M5.73385 25.9328C5.52027 25.9328 5.33689 25.8573 5.18372 25.7062C5.0327 25.5531 4.95719 25.3697 4.95719 25.1561C4.95719 24.9447 5.0327 24.7635 5.18372 24.6124C5.33689 24.4614 5.52027 24.3859 5.73385 24.3859C5.94096 24.3859 6.12218 24.4614 6.27751 24.6124C6.43285 24.7635 6.51051 24.9447 6.51051 25.1561C6.51051 25.2985 6.47384 25.429 6.40049 25.5477C6.32929 25.6642 6.23544 25.758 6.11895 25.8292C6.00245 25.8983 5.87408 25.9328 5.73385 25.9328ZM10.0176 25.8486H7.66822V19.2211H10.037C10.7037 19.2211 11.2775 19.3538 11.7586 19.6192C12.2397 19.8824 12.6097 20.261 12.8686 20.755C13.1297 21.2491 13.2602 21.8402 13.2602 22.5284C13.2602 23.2188 13.1297 23.8121 12.8686 24.3083C12.6097 24.8045 12.2376 25.1852 11.7522 25.4506C11.2689 25.716 10.6907 25.8486 10.0176 25.8486ZM9.06945 24.648H9.95937C10.3736 24.648 10.722 24.5747 11.0046 24.428C11.2894 24.2791 11.503 24.0494 11.6454 23.7387C11.7899 23.4259 11.8622 23.0224 11.8622 22.5284C11.8622 22.0387 11.7899 21.6385 11.6454 21.3278C11.503 21.0172 11.2905 20.7885 11.0079 20.6418C10.7252 20.4951 10.3768 20.4217 9.96261 20.4217H9.06945V24.648ZM16.5181 25.9457C16.0154 25.9457 15.5807 25.8389 15.214 25.6253C14.8494 25.4096 14.5678 25.1097 14.3694 24.7257C14.1709 24.3395 14.0716 23.8919 14.0716 23.3827C14.0716 22.8693 14.1709 22.4205 14.3694 22.0365C14.5678 21.6503 14.8494 21.3505 15.214 21.1369C15.5807 20.9211 16.0154 20.8133 16.5181 20.8133C17.0208 20.8133 17.4544 20.9211 17.819 21.1369C18.1858 21.3505 18.4684 21.6503 18.6669 22.0365C18.8654 22.4205 18.9646 22.8693 18.9646 23.3827C18.9646 23.8919 18.8654 24.3395 18.6669 24.7257C18.4684 25.1097 18.1858 25.4096 17.819 25.6253C17.4544 25.8389 17.0208 25.9457 16.5181 25.9457ZM16.5246 24.8778C16.7533 24.8778 16.9442 24.8131 17.0974 24.6836C17.2506 24.552 17.366 24.373 17.4436 24.1465C17.5235 23.9199 17.5634 23.6621 17.5634 23.373C17.5634 23.0839 17.5235 22.8261 17.4436 22.5996C17.366 22.3731 17.2506 22.194 17.0974 22.0624C16.9442 21.9308 16.7533 21.865 16.5246 21.865C16.2937 21.865 16.0996 21.9308 15.9421 22.0624C15.7868 22.194 15.6692 22.3731 15.5894 22.5996C15.5117 22.8261 15.4729 23.0839 15.4729 23.373C15.4729 23.6621 15.5117 23.9199 15.5894 24.1465C15.6692 24.373 15.7868 24.552 15.9421 24.6836C16.0996 24.8131 16.2937 24.8778 16.5246 24.8778ZM22.1068 25.9457C21.5977 25.9457 21.1597 25.8378 20.793 25.6221C20.4284 25.4042 20.1479 25.1022 19.9516 24.716C19.7574 24.3298 19.6604 23.8854 19.6604 23.3827C19.6604 22.8736 19.7585 22.427 19.9548 22.043C20.1533 21.6568 20.4349 21.3559 20.7995 21.1401C21.1641 20.9222 21.5977 20.8133 22.1004 20.8133C22.534 20.8133 22.9137 20.892 23.2395 21.0495C23.5652 21.207 23.823 21.4281 24.0129 21.7129C24.2027 21.9977 24.3074 22.3321 24.3268 22.7161H23.0259C22.9892 22.468 22.8921 22.2684 22.7346 22.1174C22.5793 21.9642 22.3754 21.8877 22.123 21.8877C21.9094 21.8877 21.7228 21.9459 21.5632 22.0624C21.4057 22.1768 21.2827 22.3439 21.1943 22.564C21.1058 22.7841 21.0616 23.0505 21.0616 23.3633C21.0616 23.6805 21.1047 23.9501 21.191 24.1723C21.2795 24.3946 21.4035 24.5639 21.5632 24.6804C21.7228 24.7969 21.9094 24.8552 22.123 24.8552C22.2805 24.8552 22.4218 24.8228 22.5469 24.7581C22.6742 24.6933 22.7789 24.5995 22.8608 24.4765C22.945 24.3514 23 24.2015 23.0259 24.0267H24.3268C24.3052 24.4064 24.2017 24.7408 24.0161 25.0299C23.8328 25.3168 23.5793 25.5412 23.2557 25.703C22.932 25.8648 22.5491 25.9457 22.1068 25.9457Z" fill="white"/>
</svg>
