<svg width="301" height="300" viewBox="0 0 301 300" fill="none" xmlns="http://www.w3.org/2000/svg">
<path d="M134.873 30.6221C143.498 23.2471 157.623 23.2471 166.373 30.6221L186.123 47.6221C189.873 50.8721 196.873 53.4971 201.873 53.4971H223.123C236.373 53.4971 247.248 64.3721 247.248 77.6221V98.8721C247.248 103.747 249.873 110.872 253.123 114.622L270.123 134.372C277.498 142.997 277.498 157.122 270.123 165.872L253.123 185.622C249.873 189.372 247.248 196.372 247.248 201.372V222.622C247.248 235.872 236.373 246.747 223.123 246.747H201.873C196.998 246.747 189.873 249.372 186.123 252.622L166.373 269.622C157.748 276.997 143.623 276.997 134.873 269.622L115.123 252.622C111.373 249.372 104.373 246.747 99.373 246.747H77.748C64.498 246.747 53.623 235.872 53.623 222.622V201.247C53.623 196.372 50.998 189.372 47.873 185.622L30.998 165.747C23.748 157.122 23.748 143.122 30.998 134.497L47.873 114.622C50.998 110.872 53.623 103.872 53.623 98.9971V77.4971C53.623 64.2471 64.498 53.3721 77.748 53.3721H99.373C104.248 53.3721 111.373 50.7471 115.123 47.4971L134.873 30.6221Z" fill="#E7F1E9"/>
<path d="M137.478 50.5186C144.665 44.3727 156.436 44.3727 163.728 50.5186L180.186 64.6852C183.311 67.3936 189.144 69.5811 193.311 69.5811H211.019C222.061 69.5811 231.123 78.6436 231.123 89.6852V107.394C231.123 111.456 233.311 117.394 236.019 120.519L250.186 136.977C256.332 144.164 256.332 155.935 250.186 163.227L236.019 179.685C233.311 182.81 231.123 188.644 231.123 192.81V210.519C231.123 221.56 222.061 230.623 211.019 230.623H193.311C189.248 230.623 183.311 232.81 180.186 235.519L163.728 249.685C156.54 255.831 144.769 255.831 137.478 249.685L121.019 235.519C117.894 232.81 112.061 230.623 107.894 230.623H89.8734C78.8317 230.623 69.7692 221.56 69.7692 210.519V192.706C69.7692 188.644 67.5817 182.81 64.9775 179.685L50.915 163.123C44.8734 155.935 44.8734 144.269 50.915 137.081L64.9775 120.519C67.5817 117.394 69.7692 111.56 69.7692 107.498V89.5811C69.7692 78.5394 78.8317 69.4769 89.8734 69.4769H107.894C111.957 69.4769 117.894 67.2894 121.019 64.5811L137.478 50.5186Z" fill="#CBE7DC"/>
<path d="M140.395 79.8025C145.972 75.0333 155.106 75.0333 160.765 79.8025L173.536 90.7958C175.961 92.8975 180.488 94.595 183.721 94.595H197.463C206.031 94.595 213.064 101.627 213.064 110.196V123.937C213.064 127.09 214.761 131.697 216.863 134.122L227.856 146.894C232.626 152.472 232.626 161.606 227.856 167.264L216.863 180.036C214.761 182.461 213.064 186.987 213.064 190.221V203.962C213.064 212.531 206.031 219.563 197.463 219.563H183.721C180.569 219.563 175.961 221.261 173.536 223.362L160.765 234.356C155.187 239.125 146.053 239.125 140.395 234.356L127.623 223.362C125.198 221.261 120.671 219.563 117.438 219.563H103.454C94.8856 219.563 87.8531 212.531 87.8531 203.962V190.14C87.8531 186.987 86.1556 182.461 84.1348 180.036L73.2223 167.183C68.534 161.606 68.534 152.552 73.2223 146.975L84.1348 134.122C86.1556 131.697 87.8531 127.171 87.8531 124.018V110.115C87.8531 101.547 94.8856 94.5141 103.454 94.5141H117.438C120.591 94.5141 125.198 92.8166 127.623 90.715L140.395 79.8025Z" fill="#219156"/>
<path d="M140.395 79.8025C145.972 75.0333 155.106 75.0333 160.765 79.8025L173.536 90.7958C175.961 92.8975 180.488 94.595 183.721 94.595H197.463C206.031 94.595 213.064 101.627 213.064 110.196V123.937C213.064 127.09 214.761 131.697 216.863 134.122L227.856 146.894C232.626 152.472 232.626 161.606 227.856 167.264L216.863 180.036C214.761 182.461 213.064 186.987 213.064 190.221V203.962C213.064 212.531 206.031 219.563 197.463 219.563H183.721C180.569 219.563 175.961 221.261 173.536 223.362L160.765 234.356C155.187 239.125 146.053 239.125 140.395 234.356L127.623 223.362C125.198 221.261 120.671 219.563 117.438 219.563H103.454C94.8856 219.563 87.8531 212.531 87.8531 203.962V190.14C87.8531 186.987 86.1556 182.461 84.1348 180.036L73.2223 167.183C68.534 161.606 68.534 152.552 73.2223 146.975L84.1348 134.122C86.1556 131.697 87.8531 127.171 87.8531 124.018V110.115C87.8531 101.547 94.8856 94.5141 103.454 94.5141H117.438C120.591 94.5141 125.198 92.8166 127.623 90.715L140.395 79.8025Z" stroke="#6E6D6D" stroke-width="1.5" stroke-linecap="round" stroke-linejoin="round"/>
<path d="M140.395 79.8025C145.972 75.0333 155.106 75.0333 160.765 79.8025L173.536 90.7958C175.961 92.8975 180.488 94.595 183.721 94.595H197.463C206.031 94.595 213.064 101.627 213.064 110.196V123.937C213.064 127.09 214.761 131.697 216.863 134.122L227.856 146.894C232.626 152.472 232.626 161.606 227.856 167.264L216.863 180.036C214.761 182.461 213.064 186.987 213.064 190.221V203.962C213.064 212.531 206.031 219.563 197.463 219.563H183.721C180.569 219.563 175.961 221.261 173.536 223.362L160.765 234.356C155.187 239.125 146.053 239.125 140.395 234.356L127.623 223.362C125.198 221.261 120.671 219.563 117.438 219.563H103.454C94.8856 219.563 87.8531 212.531 87.8531 203.962V190.14C87.8531 186.987 86.1556 182.461 84.1348 180.036L73.2223 167.183C68.534 161.606 68.534 152.552 73.2223 146.975L84.1348 134.122C86.1556 131.697 87.8531 127.171 87.8531 124.018V110.115C87.8531 101.547 94.8856 94.5141 103.454 94.5141H117.438C120.591 94.5141 125.198 92.8166 127.623 90.715L140.395 79.8025Z" stroke="#0E904C" stroke-width="1.5" stroke-linecap="round" stroke-linejoin="round"/>
<path d="M185.697 118L136.677 167.259L116.303 146.79L102.5 160.656L136.677 195L199.5 131.871L185.697 118Z" fill="white"/>
</svg>
