<svg width="28" height="35" viewBox="0 0 28 35" fill="none" xmlns="http://www.w3.org/2000/svg">
<mask id="mask0_1_50345" style="mask-type:luminance" maskUnits="userSpaceOnUse" x="-1" y="0" width="29" height="35">
<path d="M-0.00488281 0.242676H27.7892V34.9853H-0.00488281V0.242676Z" fill="white"/>
</mask>
<g mask="url(#mask0_1_50345)">
<path d="M3.46938 0.242676H17.3664L27.7892 10.6655V31.5111C27.7892 31.7391 27.7675 31.9652 27.7232 32.1887C27.6779 32.4122 27.6128 32.6302 27.525 32.8401C27.4382 33.051 27.3305 33.2518 27.2039 33.4409C27.0772 33.6309 26.9333 33.8064 26.7723 33.9675C26.6103 34.1294 26.4348 34.2733 26.2457 34.3999C26.0557 34.5266 25.8558 34.6334 25.645 34.7211C25.4342 34.808 25.217 34.874 24.9935 34.9184C24.7692 34.9627 24.543 34.9853 24.315 34.9853H3.46938C3.24138 34.9853 3.0161 34.9627 2.79172 34.9184C2.56824 34.874 2.3511 34.808 2.14029 34.7211C1.92949 34.6334 1.72954 34.5266 1.53954 34.3999C1.34954 34.2733 1.17401 34.1294 1.01297 33.9675C0.851922 33.8064 0.708065 33.6309 0.581399 33.4409C0.453829 33.2518 0.347067 33.051 0.260211 32.8401C0.172449 32.6302 0.106402 32.4122 0.0620692 32.1887C0.0177359 31.9652 -0.00488281 31.7391 -0.00488281 31.5111V3.71694C-0.00488281 3.48894 0.0177359 3.26275 0.0620692 3.03928C0.106402 2.8158 0.172449 2.59776 0.260211 2.38695C0.347067 2.17704 0.453829 1.97619 0.581399 1.78709C0.708065 1.5971 0.851922 1.42157 1.01297 1.26053C1.17401 1.09858 1.34954 0.954719 1.53954 0.828053C1.72954 0.701387 1.92949 0.594626 2.14029 0.506865C2.3511 0.420008 2.56824 0.353961 2.79172 0.309628C3.0161 0.265295 3.24138 0.242676 3.46938 0.242676Z" fill="#E95964"/>
</g>
<mask id="mask1_1_50345" style="mask-type:luminance" maskUnits="userSpaceOnUse" x="17" y="0" width="11" height="11">
<path d="M17.2559 0.242676H27.7908V10.7813H17.2559V0.242676Z" fill="white"/>
</mask>
<g mask="url(#mask1_1_50345)">
<path d="M17.3672 0.242676V7.1912C17.3672 7.4192 17.3898 7.64539 17.4341 7.86887C17.4785 8.09234 17.5445 8.31039 17.6323 8.52029C17.7191 8.7311 17.8259 8.93196 17.9535 9.12105C18.0801 9.31105 18.224 9.48657 18.385 9.64762C18.5461 9.80957 18.7216 9.95343 18.9116 10.0801C19.1016 10.2068 19.3016 10.3135 19.5124 10.4013C19.7232 10.4881 19.9403 10.5542 20.1638 10.5985C20.3882 10.6428 20.6135 10.6655 20.8415 10.6655H27.79L17.3672 0.242676Z" fill="#A74249"/>
</g>
<path d="M6.61249 25.0063V18.5998H9.14009C9.626 18.5998 10.04 18.6926 10.382 18.8782C10.724 19.0617 10.9847 19.3172 11.164 19.6446C11.3455 19.9699 11.4362 20.3453 11.4362 20.7707C11.4362 21.1962 11.3444 21.5716 11.1609 21.8969C10.9774 22.2222 10.7115 22.4756 10.3632 22.6571C10.017 22.8385 9.59785 22.9292 9.10568 22.9292H7.49464V21.8437H8.8867C9.14739 21.8437 9.36219 21.7989 9.53112 21.7092C9.70212 21.6174 9.82934 21.4913 9.91276 21.3307C9.99826 21.168 10.041 20.9814 10.041 20.7707C10.041 20.558 9.99826 20.3724 9.91276 20.2139C9.82934 20.0533 9.70212 19.9292 9.53112 19.8417C9.36011 19.752 9.14322 19.7071 8.88045 19.7071H7.96701V25.0063H6.61249ZM13.9841 25.0846C13.6192 25.0846 13.2886 24.9907 12.9925 24.803C12.6984 24.6132 12.4649 24.3348 12.2918 23.9678C12.1208 23.5986 12.0353 23.1461 12.0353 22.6101C12.0353 22.0596 12.1239 21.6018 12.3012 21.2368C12.4784 20.8698 12.7141 20.5956 13.0081 20.4141C13.3043 20.2306 13.6286 20.1388 13.981 20.1388C14.25 20.1388 14.4742 20.1847 14.6536 20.2765C14.835 20.3662 14.981 20.4788 15.0915 20.6143C15.2041 20.7478 15.2896 20.8792 15.348 21.0085H15.3887V18.5998H16.7182V25.0063H15.4043V24.2368H15.348C15.2855 24.3703 15.1968 24.5027 15.0821 24.6341C14.9695 24.7634 14.8225 24.8708 14.6411 24.9563C14.4617 25.0418 14.2427 25.0846 13.9841 25.0846ZM14.4064 24.0241C14.6212 24.0241 14.8027 23.9657 14.9508 23.8489C15.1009 23.73 15.2156 23.5642 15.2949 23.3515C15.3762 23.1388 15.4169 22.8896 15.4169 22.6039C15.4169 22.3182 15.3772 22.07 15.298 21.8594C15.2187 21.6487 15.104 21.4861 14.9539 21.3714C14.8037 21.2567 14.6212 21.1993 14.4064 21.1993C14.1875 21.1993 14.0029 21.2587 13.8528 21.3776C13.7026 21.4965 13.5889 21.6612 13.5118 21.8719C13.4346 22.0825 13.396 22.3265 13.396 22.6039C13.396 22.8833 13.4346 23.1305 13.5118 23.3453C13.591 23.558 13.7047 23.7248 13.8528 23.8458C14.0029 23.9647 14.1875 24.0241 14.4064 24.0241ZM20.3978 20.2014V21.2024H17.4322V20.2014H20.3978ZM18.111 25.0063V19.8542C18.111 19.5059 18.1788 19.2171 18.3144 18.9877C18.452 18.7583 18.6397 18.5862 18.8775 18.4715C19.1152 18.3568 19.3853 18.2994 19.6877 18.2994C19.892 18.2994 20.0787 18.3151 20.2476 18.3464C20.4186 18.3777 20.5458 18.4058 20.6293 18.4308L20.3915 19.4319C20.3394 19.4152 20.2747 19.3995 20.1976 19.3849C20.1225 19.3703 20.0453 19.363 19.9661 19.363C19.77 19.363 19.6334 19.4089 19.5563 19.5007C19.4791 19.5904 19.4405 19.7165 19.4405 19.8792V25.0063H18.111Z" fill="white"/>
</svg>
