<svg width="29" height="36" viewBox="0 0 29 36" fill="none" xmlns="http://www.w3.org/2000/svg">
<mask id="mask0_115_13081" style="mask-type:luminance" maskUnits="userSpaceOnUse" x="0" y="0" width="29" height="36">
<path d="M0.927734 0.606445H28.7225V35.3498H0.927734V0.606445Z" fill="white"/>
</mask>
<g mask="url(#mask0_115_13081)">
<path d="M4.40207 0.606445H18.2994L28.7225 11.0295V31.8755C28.7225 32.1035 28.7007 32.3297 28.6564 32.5532C28.6112 32.7767 28.546 32.9947 28.4583 33.2046C28.3714 33.4154 28.2637 33.6163 28.1371 33.8054C28.0104 33.9954 27.8665 34.1709 27.7055 34.332C27.5435 34.4939 27.368 34.6378 27.1789 34.7645C26.9889 34.8911 26.789 34.9979 26.5781 35.0857C26.3673 35.1725 26.1502 35.2386 25.9267 35.2829C25.7023 35.3272 25.4761 35.3498 25.2481 35.3498H4.40207C4.17407 35.3498 3.94878 35.3272 3.7244 35.2829C3.50092 35.2386 3.28377 35.1725 3.07296 35.0857C2.86215 34.9979 2.66219 34.8911 2.47219 34.7645C2.28218 34.6378 2.10666 34.4939 1.94561 34.332C1.78456 34.1709 1.6407 33.9954 1.51403 33.8054C1.38646 33.6163 1.27969 33.4154 1.19283 33.2046C1.10507 32.9947 1.03902 32.7767 0.994688 32.5532C0.950354 32.3297 0.927734 32.1035 0.927734 31.8755V4.08079C0.927734 3.85278 0.950354 3.62659 0.994688 3.40311C1.03902 3.17963 1.10507 2.96158 1.19283 2.75076C1.27969 2.54086 1.38646 2.34 1.51403 2.1509C1.6407 1.9609 1.78456 1.78537 1.94561 1.62432C2.10666 1.46236 2.28218 1.3185 2.47219 1.19184C2.66219 1.06517 2.86215 0.958403 3.07296 0.87064C3.28377 0.783781 3.50092 0.717733 3.7244 0.673399C3.94878 0.629065 4.17407 0.606445 4.40207 0.606445Z" fill="#47A778"/>
</g>
<mask id="mask1_115_13081" style="mask-type:luminance" maskUnits="userSpaceOnUse" x="18" y="0" width="11" height="12">
<path d="M18.1875 0.606445H28.7227V11.1453H18.1875V0.606445Z" fill="white"/>
</mask>
<g mask="url(#mask1_115_13081)">
<path d="M18.2979 0.606445V7.55513C18.2979 7.78313 18.3205 8.00932 18.3648 8.2328C18.4091 8.45628 18.4752 8.67433 18.563 8.88424C18.6498 9.09505 18.7566 9.29591 18.8841 9.48501C19.0108 9.67502 19.1547 9.85054 19.3157 10.0116C19.4768 10.1735 19.6523 10.3174 19.8423 10.4441C20.0323 10.5707 20.2323 10.6775 20.4431 10.7653C20.6539 10.8521 20.871 10.9182 21.0945 10.9625C21.3189 11.0068 21.5442 11.0295 21.7722 11.0295H28.7209L18.2979 0.606445Z" fill="#3B7C5C"/>
</g>
<path d="M7.40869 25.9318C7.1951 25.9318 7.01172 25.8563 6.85854 25.7053C6.70752 25.5521 6.63201 25.3687 6.63201 25.1551C6.63201 24.9437 6.70752 24.7625 6.85854 24.6114C7.01172 24.4604 7.1951 24.3849 7.40869 24.3849C7.6158 24.3849 7.79702 24.4604 7.95236 24.6114C8.1077 24.7625 8.18536 24.9437 8.18536 25.1551C8.18536 25.2975 8.14869 25.428 8.07533 25.5467C8.00414 25.6632 7.91029 25.757 7.79379 25.8282C7.67729 25.8973 7.54892 25.9318 7.40869 25.9318ZM8.7792 20.3753V19.22H14.2224V20.3753H12.1933V25.8477H10.8083V20.3753H8.7792ZM15.9869 20.8769L16.8995 22.6147L17.8348 20.8769H19.249L17.8089 23.3623L19.2878 25.8477H17.8801L16.8995 24.1293L15.9352 25.8477H14.5112L15.9869 23.3623L14.563 20.8769H15.9869ZM22.7117 20.8769V21.9125H19.7182V20.8769H22.7117ZM20.3978 19.686H21.7764V24.3202C21.7764 24.4475 21.7958 24.5467 21.8347 24.6179C21.8735 24.687 21.9274 24.7355 21.9965 24.7635C22.0677 24.7916 22.1497 24.8056 22.2424 24.8056C22.3072 24.8056 22.3719 24.8002 22.4366 24.7894C22.5013 24.7765 22.5509 24.7668 22.5855 24.7603L22.8023 25.7862C22.7332 25.8077 22.6362 25.8326 22.511 25.8606C22.3859 25.8908 22.2338 25.9091 22.0547 25.9156C21.7225 25.9286 21.4312 25.8843 21.181 25.7829C20.9329 25.6815 20.7398 25.524 20.6017 25.3105C20.4636 25.0969 20.3957 24.8272 20.3978 24.5014V19.686Z" fill="white"/>
</svg>
