<svg width="28" height="36" viewBox="0 0 28 36" fill="none" xmlns="http://www.w3.org/2000/svg">
<mask id="mask0_1_50323" style="mask-type:luminance" maskUnits="userSpaceOnUse" x="0" y="0" width="28" height="36">
<path d="M0.00195312 0.501953H27.7961V35.2446H0.00195312V0.501953Z" fill="white"/>
</mask>
<g mask="url(#mask0_1_50323)">
<path d="M3.47622 0.501953H17.3733L27.7961 10.9247V31.7703C27.7961 31.9983 27.7744 32.2245 27.73 32.448C27.6848 32.6715 27.6196 32.8895 27.5319 33.0994C27.445 33.3102 27.3374 33.5111 27.2107 33.7002C27.084 33.8902 26.9402 34.0657 26.7791 34.2267C26.6172 34.3887 26.4417 34.5326 26.2526 34.6592C26.0626 34.7859 25.8626 34.8926 25.6518 34.9804C25.441 35.0673 25.2238 35.1333 25.0004 35.1776C24.776 35.222 24.5498 35.2446 24.3218 35.2446H3.47622C3.24822 35.2446 3.02293 35.222 2.79856 35.1776C2.57508 35.1333 2.35794 35.0673 2.14713 34.9804C1.93632 34.8926 1.73637 34.7859 1.54637 34.6592C1.35637 34.5326 1.18085 34.3887 1.0198 34.2267C0.858758 34.0657 0.714901 33.8902 0.588235 33.7002C0.460665 33.5111 0.353903 33.3102 0.267047 33.0994C0.179285 32.8895 0.113238 32.6715 0.0689051 32.448C0.0245719 32.2245 0.00195312 31.9983 0.00195312 31.7703V3.97622C0.00195312 3.74822 0.0245719 3.52203 0.0689051 3.29856C0.113238 3.07508 0.179285 2.85703 0.267047 2.64623C0.353903 2.43632 0.460665 2.23547 0.588235 2.04637C0.714901 1.85637 0.858758 1.68085 1.0198 1.5198C1.18085 1.35785 1.35637 1.214 1.54637 1.08733C1.73637 0.960665 1.93632 0.853903 2.14713 0.766142C2.35794 0.679285 2.57508 0.613238 2.79856 0.568905C3.02293 0.524572 3.24822 0.501953 3.47622 0.501953Z" fill="#498CFC"/>
</g>
<mask id="mask1_1_50323" style="mask-type:luminance" maskUnits="userSpaceOnUse" x="17" y="0" width="11" height="12">
<path d="M17.2588 0.501953H27.7938V11.0406H17.2588V0.501953Z" fill="white"/>
</mask>
<g mask="url(#mask1_1_50323)">
<path d="M17.3711 0.501953V7.45048C17.3711 7.67848 17.3937 7.90467 17.438 8.12815C17.4824 8.35162 17.5484 8.56967 17.6362 8.77957C17.723 8.99038 17.8298 9.19123 17.9574 9.38033C18.084 9.57033 18.2279 9.74585 18.3889 9.9069C18.55 10.0688 18.7255 10.2127 18.9155 10.3394C19.1055 10.466 19.3055 10.5728 19.5163 10.6606C19.7271 10.7474 19.9442 10.8135 20.1677 10.8578C20.3921 10.9021 20.6174 10.9247 20.8454 10.9247H27.7939L17.3711 0.501953Z" fill="#365D9E"/>
</g>
</svg>
