<svg width="40" height="42" viewBox="0 0 40 42" fill="none" xmlns="http://www.w3.org/2000/svg">
<path d="M36 0C37.0609 0 38.0783 0.421427 38.8284 1.17157C39.5786 1.92172 40 2.93913 40 4V32C40 33.0609 39.5786 34.0783 38.8284 34.8284C38.0783 35.5786 37.0609 36 36 36H4C2.93913 36 1.92172 35.5786 1.17157 34.8284C0.421427 34.0783 0 33.0609 0 32V4C0 2.93913 0.421427 1.92172 1.17157 1.17157C1.92172 0.421427 2.93913 0 4 0H36ZM36 4H4V32H5.858L24.474 13.384C24.7062 13.1518 24.9818 12.9676 25.2851 12.8419C25.5885 12.7162 25.9136 12.6515 26.242 12.6515C26.5704 12.6515 26.8955 12.7162 27.1989 12.8419C27.5022 12.9676 27.7778 13.1518 28.01 13.384L36 21.372V4ZM26.242 17.272L11.514 32H36V27.03L26.242 17.272ZM11 8C11.7956 8 12.5587 8.31607 13.1213 8.87868C13.6839 9.44129 14 10.2044 14 11C14 11.7956 13.6839 12.5587 13.1213 13.1213C12.5587 13.6839 11.7956 14 11 14C10.2044 14 9.44129 13.6839 8.87868 13.1213C8.31607 12.5587 8 11.7956 8 11C8 10.2044 8.31607 9.44129 8.87868 8.87868C9.44129 8.31607 10.2044 8 11 8Z" fill="#E63946"/>
</svg>
