<svg width="64" height="56" viewBox="0 0 64 56" fill="none" xmlns="http://www.w3.org/2000/svg">
<mask id="mask0_1_48688" style="mask-type:luminance" maskUnits="userSpaceOnUse" x="0" y="0" width="64" height="56">
<path d="M0.261719 0.803467L63.2617 0.803025L63.262 55.803L0.262047 55.8034L0.261719 0.803467Z" fill="white"/>
</mask>
<g mask="url(#mask0_1_48688)">
<path d="M35.8926 10.5824L32.0666 3.93027C30.9493 1.98872 29.0478 0.816694 27.0069 0.816708L5.19805 0.816861C2.51562 0.816879 0.341812 3.29204 0.34183 6.3476L0.342091 50.2618C0.34211 53.3155 2.51595 55.7925 5.19837 55.7925L58.3973 55.7921C61.0797 55.7921 63.2552 53.3169 63.2551 50.2614L63.255 19.2284C63.2549 16.1729 61.0811 13.6959 58.397 13.6959L40.9523 13.696C38.913 13.696 37.0098 12.5259 35.8926 10.5824Z" fill="#FA615C"/>
</g>
</svg>
