<svg width="45" height="56" viewBox="0 0 45 56" fill="none" xmlns="http://www.w3.org/2000/svg">
<mask id="mask0_1_50601" style="mask-type:luminance" maskUnits="userSpaceOnUse" x="0" y="-1" width="45" height="57">
<path d="M0.5 -0.00292969H44.5V55.9971H0.5V-0.00292969Z" fill="white"/>
</mask>
<g mask="url(#mask0_1_50601)">
<path d="M6 -0.00292969H28L44.5 16.7971V50.3971C44.5 50.7646 44.4656 51.1292 44.3954 51.4894C44.3238 51.8496 44.2207 52.201 44.0818 52.5394C43.9443 52.8792 43.7738 53.2029 43.5733 53.5077C43.3728 53.8139 43.1451 54.0969 42.8901 54.3564C42.6337 54.6175 42.3559 54.8494 42.0565 55.0535C41.7557 55.2577 41.4392 55.4298 41.1055 55.5712C40.7717 55.7112 40.428 55.8177 40.0742 55.8892C39.719 55.9606 39.3609 55.9971 39 55.9971H6C5.63906 55.9971 5.28242 55.9606 4.92721 55.8892C4.57344 55.8177 4.22969 55.7112 3.89596 55.5712C3.56224 55.4298 3.2457 55.2577 2.94492 55.0535C2.64414 54.8494 2.36628 54.6175 2.11133 54.3564C1.85638 54.0969 1.62865 53.8139 1.42813 53.5077C1.22617 53.2029 1.05716 52.8792 0.919661 52.5394C0.780729 52.201 0.676172 51.8496 0.60599 51.4894C0.535807 51.1292 0.5 50.7646 0.5 50.3971V5.59707C0.5 5.22957 0.535807 4.86499 0.60599 4.50478C0.676172 4.14457 0.780729 3.79311 0.919661 3.45332C1.05716 3.11499 1.22617 2.79124 1.42813 2.48645C1.62865 2.1802 1.85638 1.89728 2.11133 1.6377C2.36628 1.37665 2.64414 1.14478 2.94492 0.940612C3.2457 0.736445 3.56224 0.564362 3.89596 0.422904C4.22969 0.282904 4.57344 0.176446 4.92721 0.104987C5.28242 0.0335287 5.63906 -0.00292969 6 -0.00292969Z" fill="#47A778"/>
</g>
<mask id="mask1_1_50601" style="mask-type:luminance" maskUnits="userSpaceOnUse" x="27" y="-1" width="18" height="18">
<path d="M27.8281 -0.00292969H44.5057V16.9837H27.8281V-0.00292969Z" fill="white"/>
</mask>
<g mask="url(#mask1_1_50601)">
<path d="M27.999 -0.00292969V11.1971C27.999 11.5646 28.0348 11.9292 28.105 12.2894C28.1752 12.6496 28.2798 13.001 28.4187 13.3394C28.5562 13.6792 28.7252 14.0029 28.9271 14.3077C29.1277 14.6139 29.3554 14.8969 29.6104 15.1564C29.8653 15.4175 30.1432 15.6494 30.4439 15.8535C30.7447 16.0577 31.0613 16.2298 31.395 16.3712C31.7287 16.5112 32.0725 16.6177 32.4262 16.6892C32.7814 16.7606 33.1381 16.7971 33.499 16.7971H44.499L27.999 -0.00292969Z" fill="#3B7C5C"/>
</g>
</svg>
