<svg width="64" height="56" viewBox="0 0 64 56" fill="none" xmlns="http://www.w3.org/2000/svg">
<path d="M32.3037 2.96191L59.0492 2.96173C61.4904 2.96171 63.4723 5.21966 63.4723 7.99999L63.4724 17.2546L32.3038 17.2549L32.3037 2.96191Z" fill="#B5A566"/>
<mask id="mask0_1_48666" style="mask-type:luminance" maskUnits="userSpaceOnUse" x="0" y="0" width="64" height="56">
<path d="M0.803711 0.803223L63.8037 0.802781L63.8041 55.8027L0.804039 55.8032L0.803711 0.803223Z" fill="white"/>
</mask>
<g mask="url(#mask0_1_48666)">
<path d="M36.4326 10.5837L32.6066 3.93149C31.4894 1.98994 29.5879 0.817914 27.5469 0.817928L5.73809 0.818081C3.05566 0.8181 0.881851 3.29326 0.881869 6.34882L0.882131 50.263C0.882149 53.3167 3.05599 55.7937 5.73842 55.7937L58.9373 55.7933C61.6198 55.7933 63.7952 53.3182 63.7952 50.2626L63.795 19.2296C63.795 16.1741 61.6212 13.6971 58.9371 13.6971L41.4923 13.6972C39.453 13.6972 37.5499 12.5271 36.4326 10.5837Z" fill="#F0D672"/>
</g>
</svg>
