<svg width="64" height="56" viewBox="0 0 64 56" fill="none" xmlns="http://www.w3.org/2000/svg">
<path d="M31.3857 2.82275L57.8123 2.82258C60.2244 2.82256 62.1827 5.11378 62.1827 7.93507L62.1828 17.3261L31.3858 17.3263L31.3857 2.82275Z" fill="#316C4F"/>
<mask id="mask0_1_48731" style="mask-type:luminance" maskUnits="userSpaceOnUse" x="0" y="0" width="64" height="56">
<path d="M0.262695 0.633301L63.2627 0.632859L63.2631 55.6328L0.263023 55.6333L0.262695 0.633301Z" fill="white"/>
</mask>
<g mask="url(#mask0_1_48731)">
<path d="M35.8916 10.4125L32.0656 3.76034C30.9483 1.8188 29.0469 0.646772 27.0059 0.646786L5.19707 0.646939C2.51465 0.646957 0.340835 3.12212 0.340853 6.17767L0.341115 50.0919C0.341133 53.1456 2.51498 55.6226 5.1974 55.6226L58.3963 55.6222C61.0788 55.6222 63.2542 53.147 63.2542 50.0915L63.254 19.0585C63.254 16.0029 61.0801 13.5259 58.3961 13.526L40.9513 13.5261C38.912 13.5261 37.0089 12.3559 35.8916 10.4125Z" fill="#47A778"/>
</g>
</svg>
