<svg width="24" height="24" viewBox="0 0 24 24" fill="none" xmlns="http://www.w3.org/2000/svg">
<path d="M23.1431 17.9998V21.4284C23.1431 21.883 22.9625 22.3191 22.641 22.6405C22.3195 22.962 21.8835 23.1426 21.4289 23.1426H18.0003M18.0003 0.856934H21.4289C21.8835 0.856934 22.3195 1.03755 22.641 1.35904C22.9625 1.68053 23.1431 2.11656 23.1431 2.57122V5.99979M0.857422 5.99979V2.57122C0.857422 2.11656 1.03803 1.68053 1.35952 1.35904C1.68102 1.03755 2.11705 0.856934 2.57171 0.856934H6.00028M6.00028 23.1426H2.57171C2.11705 23.1426 1.68102 22.962 1.35952 22.6405C1.03803 22.3191 0.857422 21.883 0.857422 21.4284V17.9998" stroke="#290DF7" stroke-width="1.71429" stroke-linecap="round" stroke-linejoin="round"/>
<path d="M11.9999 11.1428C12.9092 11.1428 13.7813 10.7816 14.4243 10.1386C15.0672 9.4956 15.4285 8.62353 15.4285 7.71422C15.4285 6.8049 15.0672 5.93283 14.4243 5.28985C13.7813 4.64687 12.9092 4.28564 11.9999 4.28564C11.0906 4.28564 10.2185 4.64687 9.57553 5.28985C8.93255 5.93283 8.57133 6.8049 8.57133 7.71422C8.57133 8.62353 8.93255 9.4956 9.57553 10.1386C10.2185 10.7816 11.0906 11.1428 11.9999 11.1428ZM18.5193 18.8571C18.0762 17.4762 17.2061 16.2718 16.0345 15.4172C14.8628 14.5627 13.4501 14.1022 11.9999 14.1022C10.5497 14.1022 9.13698 14.5627 7.96531 15.4172C6.79365 16.2718 5.92356 17.4762 5.48047 18.8571H18.5193Z" fill="#DCDCFF"/>
<path d="M11.9999 11.1428C12.9092 11.1428 13.7813 10.7816 14.4243 10.1386C15.0672 9.4956 15.4285 8.62353 15.4285 7.71422C15.4285 6.8049 15.0672 5.93283 14.4243 5.28985C13.7813 4.64687 12.9092 4.28564 11.9999 4.28564C11.0906 4.28564 10.2185 4.64687 9.57553 5.28985C8.93255 5.93283 8.57133 6.8049 8.57133 7.71422C8.57133 8.62353 8.93255 9.4956 9.57553 10.1386C10.2185 10.7816 11.0906 11.1428 11.9999 11.1428ZM18.5193 18.8571C18.0762 17.4762 17.2061 16.2718 16.0345 15.4172C14.8628 14.5627 13.4501 14.1022 11.9999 14.1022C10.5497 14.1022 9.13698 14.5627 7.96531 15.4172C6.79364 16.2718 5.92356 17.4762 5.48047 18.8571H18.5193Z" stroke="#290DF7" stroke-width="1.71429" stroke-linecap="round" stroke-linejoin="round"/>
</svg>
