<svg width="16" height="17" viewBox="0 0 16 17" fill="none" xmlns="http://www.w3.org/2000/svg">
<path d="M4 7.16634V5.83301C4 3.62634 4.66667 1.83301 8 1.83301C11.3333 1.83301 12 3.62634 12 5.83301V7.16634" stroke="#6E6D6D" stroke-width="1.5" stroke-linecap="round" stroke-linejoin="round"/>
<path d="M8.00065 12.8333C8.92113 12.8333 9.66732 12.0871 9.66732 11.1667C9.66732 10.2462 8.92113 9.5 8.00065 9.5C7.08018 9.5 6.33398 10.2462 6.33398 11.1667C6.33398 12.0871 7.08018 12.8333 8.00065 12.8333Z" stroke="#6E6D6D" stroke-width="1.5" stroke-linecap="round" stroke-linejoin="round"/>
<path d="M11.334 15.167H4.66732C2.00065 15.167 1.33398 14.5003 1.33398 11.8337V10.5003C1.33398 7.83366 2.00065 7.16699 4.66732 7.16699H11.334C14.0007 7.16699 14.6673 7.83366 14.6673 10.5003V11.8337C14.6673 14.5003 14.0007 15.167 11.334 15.167Z" stroke="#6E6D6D" stroke-width="1.5" stroke-linecap="round" stroke-linejoin="round"/>
</svg>
