<svg width="32" height="32" viewBox="0 0 32 32" fill="none" xmlns="http://www.w3.org/2000/svg">
<path d="M8 13.3337V10.667C8 6.25366 9.33333 2.66699 16 2.66699C22.6667 2.66699 24 6.25366 24 10.667V13.3337" stroke="#6E6D6D" stroke-width="1.5" stroke-linecap="round" stroke-linejoin="round"/>
<path d="M15.9974 24.6667C17.8383 24.6667 19.3307 23.1743 19.3307 21.3333C19.3307 19.4924 17.8383 18 15.9974 18C14.1564 18 12.6641 19.4924 12.6641 21.3333C12.6641 23.1743 14.1564 24.6667 15.9974 24.6667Z" stroke="#6E6D6D" stroke-width="1.5" stroke-linecap="round" stroke-linejoin="round"/>
<path d="M22.6641 29.333H9.33073C3.9974 29.333 2.66406 27.9997 2.66406 22.6663V19.9997C2.66406 14.6663 3.9974 13.333 9.33073 13.333H22.6641C27.9974 13.333 29.3307 14.6663 29.3307 19.9997V22.6663C29.3307 27.9997 27.9974 29.333 22.6641 29.333Z" stroke="#6E6D6D" stroke-width="1.5" stroke-linecap="round" stroke-linejoin="round"/>
</svg>
