<svg width="98" height="24" viewBox="0 0 98 24" fill="none" xmlns="http://www.w3.org/2000/svg">
<g clip-path="url(#clip0_1_48912)">
<path d="M28.4668 16.8547H35.4631V14.7474H30.9534V6.80981H28.4668V16.8547Z" fill="#2F234F"/>
<path d="M39.6083 15.4499C38.6108 15.4499 38.091 14.5788 38.091 13.2723C38.091 11.9658 38.6108 11.0807 39.6083 11.0807C40.6057 11.0807 41.1396 11.9658 41.1396 13.2723C41.1396 14.5788 40.6057 15.4499 39.6083 15.4499ZM39.6223 17.0795C41.9404 17.0795 43.4576 15.4358 43.4576 13.2723C43.4576 11.1088 41.9404 9.46509 39.6223 9.46509C37.3183 9.46509 35.7729 11.1088 35.7729 13.2723C35.7729 15.4358 37.3183 17.0795 39.6223 17.0795Z" fill="#2F234F"/>
<path d="M47.47 19.3415C48.5377 19.3415 49.4789 19.1027 50.1111 18.5407C50.6871 18.0209 51.0664 17.2342 51.0664 16.1524V9.6619H48.8748V10.4346H48.8467C48.4253 9.83049 47.779 9.45117 46.8237 9.45117C45.0395 9.45117 43.8032 10.9403 43.8032 13.0477C43.8032 15.2533 45.3064 16.4615 46.9221 16.4615C47.7931 16.4615 48.341 16.1103 48.7624 15.6326H48.8186V16.3491C48.8186 17.2201 48.4112 17.7259 47.4419 17.7259C46.6832 17.7259 46.3039 17.4028 46.1775 17.0235H43.9578C44.1825 18.5267 45.4891 19.3415 47.47 19.3415ZM47.4559 14.7616C46.5989 14.7616 46.037 14.0592 46.037 12.9774C46.037 11.8816 46.5989 11.1792 47.4559 11.1792C48.4112 11.1792 48.917 11.994 48.917 12.9634C48.917 13.9749 48.4534 14.7616 47.4559 14.7616Z" fill="#2F234F"/>
<path d="M55.5726 15.4499C54.5752 15.4499 54.0554 14.5788 54.0554 13.2723C54.0554 11.9658 54.5752 11.0807 55.5726 11.0807C56.5701 11.0807 57.1039 11.9658 57.1039 13.2723C57.1039 14.5788 56.5701 15.4499 55.5726 15.4499ZM55.5867 17.0795C57.9047 17.0795 59.4222 15.4358 59.4222 13.2723C59.4222 11.1088 57.9047 9.46509 55.5867 9.46509C53.2827 9.46509 51.7373 11.1088 51.7373 13.2723C51.7373 15.4358 53.2827 17.0795 55.5867 17.0795Z" fill="#2F234F"/>
<path d="M60.0908 16.8547H62.3808V9.66172H60.0908V16.8547ZM60.0908 8.66425H62.3808V6.80981H60.0908V8.66425Z" fill="#2F234F"/>
<path d="M63.374 19.2291H65.664V16.1103H65.6921C66.1416 16.7144 66.8019 17.0797 67.7291 17.0797C69.6117 17.0797 70.862 15.5905 70.862 13.2584C70.862 11.0949 69.696 9.45117 67.7853 9.45117C66.8019 9.45117 66.0995 9.88668 65.6078 10.5329H65.5656V9.6619H63.374V19.2291ZM67.1391 15.3095C66.1557 15.3095 65.5937 14.5087 65.5937 13.3427C65.5937 12.1766 66.0995 11.2916 67.097 11.2916C68.0804 11.2916 68.544 12.1064 68.544 13.3427C68.544 14.5649 68.0101 15.3095 67.1391 15.3095Z" fill="#2F234F"/>
<path d="M74.5909 17.0797C76.4735 17.0797 77.8643 16.2648 77.8643 14.6914C77.8643 12.851 76.3751 12.5279 75.1107 12.3171C74.1976 12.1485 73.3827 12.0783 73.3827 11.5725C73.3827 11.123 73.8182 10.9122 74.3802 10.9122C75.0124 10.9122 75.4479 11.1089 75.5322 11.7552H77.6395C77.5271 10.3362 76.4313 9.45117 74.3942 9.45117C72.6943 9.45117 71.2895 10.2379 71.2895 11.7552C71.2895 13.441 72.6241 13.7782 73.8744 13.9889C74.8298 14.1575 75.7008 14.2278 75.7008 14.874C75.7008 15.3376 75.2653 15.5905 74.5769 15.5905C73.8182 15.5905 73.3406 15.2393 73.2563 14.5228H71.0928C71.163 16.1103 72.4836 17.0797 74.5909 17.0797Z" fill="#2F234F"/>
<path d="M80.9741 17.0656C81.9716 17.0656 82.6038 16.6722 83.1236 15.9698H83.1657V16.8548H85.3573V9.66187H83.0674V13.6798C83.0674 14.5368 82.5897 15.1268 81.803 15.1268C81.0724 15.1268 80.7212 14.6913 80.7212 13.9046V9.66187H78.4453V14.3823C78.4453 15.9838 79.3163 17.0656 80.9741 17.0656Z" fill="#2F234F"/>
<path d="M86.3535 16.8549H88.6435V12.8229C88.6435 11.9659 89.0649 11.3618 89.7814 11.3618C90.4698 11.3618 90.7929 11.8114 90.7929 12.5841V16.8549H93.0829V12.8229C93.0829 11.9659 93.4903 11.3618 94.2208 11.3618C94.9092 11.3618 95.2323 11.8114 95.2323 12.5841V16.8549H97.5223V12.1766C97.5223 10.561 96.7075 9.45117 95.0778 9.45117C94.1506 9.45117 93.3779 9.84454 92.816 10.7156H92.7879C92.4226 9.94288 91.7061 9.45117 90.7648 9.45117C89.7252 9.45117 89.0368 9.94288 88.5873 10.6875H88.5451V9.6619H86.3535V16.8549Z" fill="#2F234F"/>
<path fill-rule="evenodd" clip-rule="evenodd" d="M5.06605 2.27794C4.22859 2.86352 3.4713 3.55586 2.8139 4.33523C5.50032 4.08582 8.91332 4.49307 12.8758 6.47432C17.1072 8.58995 20.5145 8.66148 22.8858 8.20407C22.6706 7.55262 22.3997 6.92651 22.0788 6.33131C19.3643 6.61762 15.8843 6.23865 11.8287 4.21088C9.2533 2.9232 6.98314 2.39276 5.06605 2.27794ZM20.4931 4.0743C18.3495 1.67919 15.2342 0.171875 11.7669 0.171875C10.7486 0.171875 9.76064 0.301889 8.81879 0.546205C10.0944 0.894266 11.4495 1.40348 12.8758 2.11662C15.8451 3.60126 18.4087 4.07928 20.4931 4.0743ZM23.3928 10.4907C20.528 11.0564 16.572 10.9402 11.8287 8.56858C7.39418 6.35133 3.8647 6.37926 1.48429 6.90825C1.36142 6.93553 1.24145 6.96421 1.12437 6.99407C0.812714 7.67186 0.563941 8.3846 0.385445 9.12474C0.576089 9.07381 0.77309 9.0254 0.976347 8.98021C3.8642 8.33847 7.94448 8.36634 12.8758 10.832C17.3103 13.0493 20.8398 13.0213 23.2202 12.4923C23.3018 12.4743 23.3822 12.4555 23.4612 12.4362C23.4699 12.2516 23.4742 12.0659 23.4742 11.8792C23.4742 11.4094 23.4466 10.9461 23.3928 10.4907ZM23.0789 14.9069C20.242 15.4028 16.4012 15.2125 11.8287 12.9263C7.39418 10.709 3.8647 10.737 1.48429 11.2659C0.955912 11.3833 0.480588 11.5263 0.0612854 11.6773C0.0601422 11.7444 0.0595703 11.8117 0.0595703 11.8792C0.0595703 18.345 5.30111 23.5865 11.7669 23.5865C17.1857 23.5865 21.7446 19.9051 23.0789 14.9069Z" fill="#7F57F1"/>
</g>
<defs>
<clipPath id="clip0_1_48912">
<rect width="97.7561" height="24" fill="white"/>
</clipPath>
</defs>
</svg>
