<svg width="16" height="17" viewBox="0 0 16 17" fill="none" xmlns="http://www.w3.org/2000/svg">
<path d="M10.6673 1.83301H5.33398C2.66732 1.83301 1.33398 3.16634 1.33398 5.83301V14.4997C1.33398 14.8663 1.63398 15.1663 2.00065 15.1663H10.6673C13.334 15.1663 14.6673 13.833 14.6673 11.1663V5.83301C14.6673 3.16634 13.334 1.83301 10.6673 1.83301Z" stroke="#6E6D6D" stroke-width="1.5" stroke-linecap="round" stroke-linejoin="round"/>
<path d="M8.60588 5.72677L5.14588 9.18677C5.01254 9.3201 4.88588 9.5801 4.85921 9.76677L4.67255 11.0868C4.60588 11.5668 4.93921 11.9001 5.41921 11.8334L6.7392 11.6468C6.92587 11.6201 7.18588 11.4934 7.31922 11.3601L10.7792 7.9001C11.3726 7.30677 11.6592 6.61343 10.7792 5.73343C9.89922 4.84677 9.20588 5.12677 8.60588 5.72677Z" stroke="#6E6D6D" stroke-width="1.5" stroke-miterlimit="10" stroke-linecap="round" stroke-linejoin="round"/>
<path d="M8.11328 6.21973C8.40661 7.26639 9.22661 8.09306 10.2799 8.38639" stroke="#6E6D6D" stroke-width="1.5" stroke-miterlimit="10" stroke-linecap="round" stroke-linejoin="round"/>
</svg>
