<svg width="24" height="25" viewBox="0 0 24 25" fill="none" xmlns="http://www.w3.org/2000/svg">
<path d="M12.0206 3.27002C8.71058 3.27002 6.02058 5.96002 6.02058 9.27002V12.16C6.02058 12.77 5.76058 13.7 5.45058 14.22L4.30058 16.13C3.59058 17.31 4.08058 18.62 5.38058 19.06C9.69058 20.5 14.3406 20.5 18.6506 19.06C19.8606 18.66 20.3906 17.23 19.7306 16.13L18.5806 14.22C18.2806 13.7 18.0206 12.77 18.0206 12.16V9.27002C18.0206 5.97002 15.3206 3.27002 12.0206 3.27002Z" stroke="#6E6D6D" stroke-width="1.5" stroke-miterlimit="10" stroke-linecap="round"/>
<path d="M13.8699 3.5598C13.5599 3.4698 13.2399 3.3998 12.9099 3.3598C11.9499 3.2398 11.0299 3.3098 10.1699 3.5598C10.4599 2.8198 11.1799 2.2998 12.0199 2.2998C12.8599 2.2998 13.5799 2.8198 13.8699 3.5598Z" stroke="#6E6D6D" stroke-width="1.5" stroke-miterlimit="10" stroke-linecap="round" stroke-linejoin="round"/>
<path d="M15.0195 19.4199C15.0195 21.0699 13.6695 22.4199 12.0195 22.4199C11.1995 22.4199 10.4395 22.0799 9.89953 21.5399C9.35953 20.9999 9.01953 20.2399 9.01953 19.4199" stroke="#6E6D6D" stroke-width="1.5" stroke-miterlimit="10"/>
</svg>
