<svg width="44" height="56" viewBox="0 0 44 56" fill="none" xmlns="http://www.w3.org/2000/svg">
<mask id="mask0_115_10261" style="mask-type:luminance" maskUnits="userSpaceOnUse" x="-1" y="0" width="45" height="56">
<path d="M-0.0078125 0H43.9922V56H-0.0078125V0Z" fill="white"/>
</mask>
<g mask="url(#mask0_115_10261)">
<path d="M5.49219 0H27.4922L43.9922 16.8V50.4C43.9922 50.7675 43.9578 51.1321 43.8876 51.4923C43.816 51.8525 43.7129 52.204 43.574 52.5423C43.4365 52.8821 43.266 53.2058 43.0655 53.5106C42.865 53.8169 42.6372 54.0998 42.3823 54.3594C42.1259 54.6204 41.848 54.8523 41.5487 55.0565C41.2479 55.2606 40.9314 55.4327 40.5977 55.5742C40.2639 55.7142 39.9202 55.8206 39.5664 55.8921C39.2112 55.9635 38.8531 56 38.4922 56H5.49219C5.13125 56 4.77461 55.9635 4.4194 55.8921C4.06563 55.8206 3.72187 55.7142 3.38815 55.5742C3.05443 55.4327 2.73789 55.2606 2.43711 55.0565C2.13633 54.8523 1.85846 54.6204 1.60352 54.3594C1.34857 54.0998 1.12083 53.8169 0.920313 53.5106C0.718359 53.2058 0.549349 52.8821 0.411849 52.5423C0.272917 52.204 0.168359 51.8525 0.0981771 51.4923C0.0279945 51.1321 -0.0078125 50.7675 -0.0078125 50.4V5.6C-0.0078125 5.2325 0.0279945 4.86792 0.0981771 4.50771C0.168359 4.1475 0.272917 3.79604 0.411849 3.45625C0.549349 3.11792 0.718359 2.79417 0.920313 2.48938C1.12083 2.18312 1.34857 1.90021 1.60352 1.64062C1.85846 1.37958 2.13633 1.14771 2.43711 0.943542C2.73789 0.739375 3.05443 0.567292 3.38815 0.425833C3.72187 0.285833 4.06563 0.179375 4.4194 0.107917C4.77461 0.0364584 5.13125 0 5.49219 0Z" fill="#E95964"/>
</g>
<mask id="mask1_115_10261" style="mask-type:luminance" maskUnits="userSpaceOnUse" x="27" y="0" width="17" height="17">
<path d="M27.3203 0H43.9979V16.9867H27.3203V0Z" fill="white"/>
</mask>
<g mask="url(#mask1_115_10261)">
<path d="M27.5 0V11.2C27.5 11.5675 27.5358 11.9321 27.606 12.2923C27.6762 12.6525 27.7807 13.004 27.9197 13.3423C28.0572 13.6821 28.2262 14.0058 28.4281 14.3106C28.6286 14.6169 28.8564 14.8998 29.1113 15.1594C29.3663 15.4204 29.6441 15.6523 29.9449 15.8565C30.2457 16.0606 30.5622 16.2327 30.896 16.3742C31.2297 16.5142 31.5734 16.6206 31.9272 16.6921C32.2824 16.7635 32.6391 16.8 33 16.8H44L27.5 0Z" fill="#A74249"/>
</g>
<path d="M9.94304 33V22.3969H14.1263C14.9305 22.3969 15.6156 22.5505 16.1817 22.8577C16.7477 23.1614 17.1792 23.5842 17.476 24.1261C17.7763 24.6646 17.9264 25.2858 17.9264 25.99C17.9264 26.6941 17.7745 27.3153 17.4708 27.8538C17.1671 28.3922 16.727 28.8116 16.1506 29.1119C15.5777 29.4121 14.8839 29.5623 14.0693 29.5623H11.403V27.7658H13.7069C14.1384 27.7658 14.4939 27.6916 14.7734 27.5431C15.0565 27.3913 15.267 27.1825 15.4051 26.9167C15.5466 26.6475 15.6173 26.3386 15.6173 25.99C15.6173 25.6379 15.5466 25.3307 15.4051 25.0684C15.267 24.8026 15.0565 24.5973 14.7734 24.4523C14.4904 24.3039 14.1315 24.2297 13.6966 24.2297H12.1848V33H9.94304ZM22.1433 33.1294C21.5393 33.1294 20.9922 32.9741 20.5021 32.6635C20.0154 32.3494 19.6289 31.8886 19.3424 31.2811C19.0594 30.6702 18.9179 29.9212 18.9179 29.0342C18.9179 28.123 19.0646 27.3654 19.3579 26.7614C19.6513 26.1539 20.0413 25.7 20.528 25.3997C21.0181 25.096 21.5548 24.9441 22.1381 24.9441C22.5834 24.9441 22.9544 25.0201 23.2513 25.1719C23.5515 25.3204 23.7931 25.5067 23.9761 25.7311C24.1625 25.952 24.304 26.1694 24.4006 26.3834H24.4679V22.3969H26.6683V33H24.4938V31.7264H24.4006C24.2971 31.9473 24.1504 32.1665 23.9605 32.3839C23.7742 32.5979 23.5308 32.7757 23.2305 32.9172C22.9337 33.0587 22.5713 33.1294 22.1433 33.1294ZM22.8422 31.3743C23.1978 31.3743 23.498 31.2777 23.7431 31.0844C23.9916 30.8877 24.1814 30.6133 24.3126 30.2612C24.4472 29.9092 24.5145 29.4967 24.5145 29.0238C24.5145 28.551 24.4489 28.1403 24.3178 27.7917C24.1866 27.443 23.9968 27.1738 23.7483 26.984C23.4998 26.7942 23.1978 26.6992 22.8422 26.6992C22.4798 26.6992 22.1744 26.7976 21.9259 26.9943C21.6774 27.1911 21.4892 27.4638 21.3615 27.8124C21.2338 28.161 21.17 28.5648 21.17 29.0238C21.17 29.4863 21.2338 29.8954 21.3615 30.2509C21.4927 30.6029 21.6808 30.879 21.9259 31.0792C22.1744 31.276 22.4798 31.3743 22.8422 31.3743ZM32.758 25.0477V26.7044H27.85V25.0477H32.758ZM28.9734 33V24.473C28.9734 23.8966 29.0856 23.4186 29.31 23.0389C29.5378 22.6592 29.8484 22.3745 30.2419 22.1847C30.6354 21.9948 31.0823 21.8999 31.5828 21.8999C31.921 21.8999 32.23 21.9258 32.5095 21.9776C32.7926 22.0293 33.0031 22.0759 33.1412 22.1173L32.7477 23.7741C32.6614 23.7465 32.5544 23.7206 32.4267 23.6964C32.3024 23.6723 32.1747 23.6602 32.0436 23.6602C31.7191 23.6602 31.4931 23.7361 31.3654 23.888C31.2376 24.0364 31.1738 24.2452 31.1738 24.5144V33H28.9734Z" fill="white"/>
</svg>
