<svg width="16" height="17" viewBox="0 0 16 17" fill="none" xmlns="http://www.w3.org/2000/svg">
<path d="M14 4.48665C11.78 4.26665 9.54667 4.15332 7.32 4.15332C6 4.15332 4.68 4.21999 3.36 4.35332L2 4.48665" stroke="#6E6D6D" stroke-width="1.5" stroke-linecap="round" stroke-linejoin="round"/>
<path d="M5.66602 3.81301L5.81268 2.93967C5.91935 2.30634 5.99935 1.83301 7.12602 1.83301H8.87268C9.99935 1.83301 10.086 2.33301 10.186 2.94634L10.3327 3.81301" stroke="#6E6D6D" stroke-width="1.5" stroke-linecap="round" stroke-linejoin="round"/>
<path d="M12.5669 6.59375L12.1336 13.3071C12.0603 14.3537 12.0003 15.1671 10.1403 15.1671H5.86026C4.00026 15.1671 3.94026 14.3537 3.86693 13.3071L3.43359 6.59375" stroke="#6E6D6D" stroke-width="1.5" stroke-linecap="round" stroke-linejoin="round"/>
<path d="M6.88672 11.5H9.10672" stroke="#6E6D6D" stroke-width="1.5" stroke-linecap="round" stroke-linejoin="round"/>
<path d="M6.33398 8.83301H9.66732" stroke="#6E6D6D" stroke-width="1.5" stroke-linecap="round" stroke-linejoin="round"/>
</svg>
