<svg width="62" height="44" viewBox="0 0 62 44" fill="none" xmlns="http://www.w3.org/2000/svg">
<path d="M31 0.75C23.0175 0.75 16.74 6.81438 15.8623 14.5547C14.1744 14.8277 12.5916 15.5515 11.2811 16.6496C9.97047 17.7477 8.98078 19.1794 8.4165 20.7934C3.65025 22.1671 0 26.418 0 31.75C0 38.1903 5.18475 43.375 11.625 43.375H50.375C56.8153 43.375 62 38.1903 62 31.75C62 28.34 60.3434 25.2865 57.9429 23.1514C57.4934 16.343 52.0626 10.9103 45.229 10.5576C42.8962 4.88269 37.5449 0.75 31 0.75ZM31 4.625C36.3514 4.625 40.6294 8.05437 42.1406 12.9175L42.5669 14.3125H44.5625C49.9003 14.3125 54.25 18.6622 54.25 24V24.9688L55.0366 25.5752C55.986 26.3028 56.7574 27.2368 57.2925 28.3066C57.8276 29.3764 58.1122 30.5539 58.125 31.75C58.125 36.1598 54.7848 39.5 50.375 39.5H11.625C7.21525 39.5 3.875 36.1598 3.875 31.75C3.875 27.8363 6.68438 24.7983 10.23 24.1821L11.5029 23.9399L11.7451 22.6651C12.3264 20.0553 14.6397 18.1875 17.4375 18.1875H19.375V16.25C19.375 9.72062 24.4706 4.625 31 4.625ZM31 15.4634L29.605 16.7944L21.855 24.5444L24.645 27.3344L29.0625 22.9092V35.625H32.9375V22.9092L37.355 27.3306L40.145 24.5406L32.395 16.7906L31 15.4634Z" fill="#757575"/>
</svg>
